<svg xmlns="http://www.w3.org/2000/svg"><defs><font id="HelveticaNeueCyr-Light" horiz-adv-x="556"><font-face font-family="HelveticaNeueCyr" font-weight="300" panose-1="2 0 5 3 4 0 0 2 0 4" ascent="800" descent="-200" x-height="514" cap-height="712" bbox="-33 -214 1051 902" underline-thickness="50" underline-position="-100" stemh="53" stemv="63" unicode-range="U+0020-E001"/><glyph glyph-name=".notdef" horiz-adv-x="1000"/><glyph glyph-name="exclam" unicode="!" horiz-adv-x="241" d="M154 712V503l-15-324h-37L87 503v209h67zm4-613V0H83v99h75z"/><glyph glyph-name="quotedbl" unicode="&quot;" horiz-adv-x="370" d="M131 411H91l-7 280h54zm148 0h-39l-7 280h53z"/><glyph glyph-name="numbersign" unicode="#" d="M146 0H92l39 211H18l-1 48h123l32 174H59v48h122l39 210h54l-39-210h137l39 210h54l-39-210h114v-48H417l-32-174h113l1-48H376L337 0h-54l39 211H185zm185 259l32 174H226l-32-174h137z"/><glyph glyph-name="dollar" unicode="$" d="M292 782v-72c132-1 212-71 212-185v-10h-61c0 100-57 138-151 143V385c116-17 233-65 233-201 0-120-93-199-233-199v-87h-37v87C105-13 23 65 23 206v5h62v-12C85 89 150 43 255 36v298C136 359 44 398 44 520c0 110 81 182 211 190v72h37zm-37-389v264c-93-6-150-56-150-132 0-87 76-121 150-132zm37-67V35c105 2 171 60 171 148 0 100-84 124-171 143z"/><glyph glyph-name="percent" unicode="%" horiz-adv-x="889" d="M678 728L254-32h-52l425 760h51zm-449-20c101 0 156-65 156-183 0-123-58-194-159-194-102 0-158 67-158 190 0 118 60 187 161 187zm-2-43c-68 0-104-52-104-148 0-92 37-143 103-143 67 0 105 54 105 149 0 93-36 142-104 142zm442-301c101 0 156-65 156-183 0-123-58-194-159-194-102 0-158 67-158 190 0 118 60 187 161 187zm-2-43c-68 0-104-52-104-148 0-92 37-143 103-143 67 0 105 54 105 149 0 93-36 142-104 142z"/><glyph glyph-name="ampersand" unicode="&amp;" horiz-adv-x="611" d="M535 315c-2-53-20-122-43-164L620 0h-80l-81 99C409 24 343-14 251-14 125-14 38 65 38 179c0 104 90 174 176 217-39 48-87 108-87 172 0 84 65 143 160 143 90 0 155-59 155-141 0-89-72-144-140-187l150-185c14 37 22 78 24 117h59zM268 424c53 30 114 75 114 142 0 53-42 94-97 94-57 0-99-39-99-91 0-61 52-99 82-145zm-20-68c-66-42-147-87-147-176 0-79 69-142 155-142 73 0 130 43 167 103z"/><glyph glyph-name="quotesingle" unicode="'" horiz-adv-x="278" d="M159 411h-40l-7 280h54z"/><glyph glyph-name="parenleft" unicode="(" horiz-adv-x="241" d="M242-191h-50C105-39 51 86 51 262c0 147 51 336 141 456h50c-82-131-128-295-128-457 0-158 46-318 128-452z"/><glyph glyph-name="parenright" unicode=")" horiz-adv-x="241" d="M192 262c0-176-54-301-141-453H1C83-57 129 103 129 261c0 162-46 326-128 457h50c90-120 141-309 141-456z"/><glyph glyph-name="asterisk" unicode="*" horiz-adv-x="352" d="M325 606l-117-39 72-98-31-24-74 101-73-100-33 24 72 97-114 39 13 38 115-41v122h41V603l115 41z"/><glyph glyph-name="plus" unicode="+" horiz-adv-x="600" d="M272 0v217H51v49h221v217h54V266h222v-49H326V0h-54z"/><glyph glyph-name="comma" unicode="," horiz-adv-x="278" d="M181 103V29c0-74-9-139-88-167v42c31 13 44 42 45 96H99v103h82z"/><glyph glyph-name="hyphen" unicode="-" horiz-adv-x="370" d="M311 305v-61H60v61h251z"/><glyph glyph-name="period" unicode="." horiz-adv-x="278" d="M181 103V0H99v103h82z"/><glyph glyph-name="slash" unicode="/" horiz-adv-x="333" d="M350 729L38-17h-53l313 746h52z"/><glyph glyph-name="zero" unicode="0" d="M277 703c208 0 245-198 245-363 0-168-42-356-244-356C71-16 34 169 34 335c0 162 34 368 243 368zm1-56C114 647 99 456 99 333c0-121 19-295 179-295 159 0 178 185 178 304 0 120-17 305-178 305z"/><glyph glyph-name="one" unicode="1" d="M345 698V0h-66v520H98v48c120 4 168 6 196 130h51z"/><glyph glyph-name="two" unicode="2" d="M497 56V0H36c9 152 106 212 220 287 79 52 174 111 174 218 0 87-62 144-155 144-121 0-160-88-160-192H53v9c0 148 85 238 225 238 131 0 216-78 216-198 0-139-124-214-227-280-67-43-146-90-160-171 7 0 13 1 17 1h373z"/><glyph glyph-name="three" unicode="3" d="M50 475c2 144 86 228 227 228 126 0 210-72 210-179 0-76-45-134-118-152 92-19 143-80 143-171 0-129-97-217-241-217C126-16 33 71 33 207v16h61v-3c0-113 67-181 179-181 102 0 175 64 175 155 0 113-88 147-184 147-13 0-19 0-34-1v53h26c39 0 58 2 84 11 53 20 83 62 83 117 0 78-58 129-149 129-102 0-161-63-165-175H50z"/><glyph glyph-name="four" unicode="4" d="M517 226v-52H411V0h-58v174H30v59l328 467h53V226h106zm-164 0v276c0 53 0 67 1 115-86-134-178-263-273-391h272z"/><glyph glyph-name="five" unicode="5" d="M474 691v-56H171l-50-242c39 50 96 70 159 70 133 0 229-98 229-235C509 90 409-15 268-15 130-15 39 69 36 200h62c5-97 69-162 170-162 102 0 177 79 177 186 0 109-74 185-178 185-68 0-118-26-155-81l-56 2 69 361h349z"/><glyph glyph-name="six" unicode="6" d="M503 522h-63c-12 78-64 129-147 129-168 0-187-194-192-319 37 78 107 122 195 122 130 0 224-96 224-230 0-139-98-240-234-240-84 0-155 39-197 107S41 250 41 328c0 243 90 377 254 377 118 0 193-66 208-183zM284 401c-98 0-169-76-169-178 0-106 72-184 171-184 98 0 169 76 169 181 0 107-70 181-171 181z"/><glyph glyph-name="seven" unicode="7" d="M502 691v-57C341 465 235 245 218 0h-68c12 230 129 470 291 632H51v59h451z"/><glyph glyph-name="eight" unicode="8" d="M180 378c-72 20-114 75-114 150 0 108 84 179 212 179s211-70 211-175c0-78-41-131-113-154 87-19 142-83 142-175 0-134-92-216-241-216C131-13 38 69 38 197c0 94 52 160 142 181zm98 273c-92 0-150-48-150-126 0-76 59-124 150-124 92 0 149 48 149 125 0 78-56 125-149 125zm-2-300c-105 0-174-61-174-152 0-96 69-159 176-159 106 0 175 62 175 159 0 92-69 152-177 152z"/><glyph glyph-name="nine" unicode="9" d="M52 167h61c12-79 71-128 152-128 140 0 175 143 183 255 2 23 2 26 2 52v19c-34-83-99-129-192-129-131 0-224 96-224 231 0 139 98 239 233 239 84 0 150-35 193-100 37-57 52-128 52-243 0-69-7-134-20-183C458 55 376-15 264-15 146-15 62 56 52 167zm213 484c-96 0-167-77-167-181 0-105 69-178 168-178 100 0 170 73 170 177 0 105-72 182-171 182z"/><glyph glyph-name="colon" unicode=":" horiz-adv-x="278" d="M181 103V0H99v103h82zm0 398V398H99v103h82z"/><glyph glyph-name="semicolon" unicode=";" horiz-adv-x="278" d="M181 501V398H99v103h82zm0-398V29c0-74-9-139-88-167v42c31 13 44 42 45 96H99v103h82z"/><glyph glyph-name="less" unicode="&lt;" horiz-adv-x="600" d="M48 233v54l497 200v-54L110 260 545 88V35z"/><glyph glyph-name="equal" unicode="=" horiz-adv-x="600" d="M51 320v48h497v-48H51zm0-183v48h497v-48H51z"/><glyph glyph-name="greater" unicode="&gt;" horiz-adv-x="600" d="M552 233L55 35v53l435 172L55 433v54l497-200v-54z"/><glyph glyph-name="question" unicode="?" horiz-adv-x="537" d="M49 490c0 130 71 236 221 236 124 0 208-74 208-184 0-96-57-144-120-203-60-56-63-85-63-163h-60c0 126 25 144 114 233 44 44 63 83 63 129 0 79-58 133-143 133-116 0-159-88-159-181H49zm253-390V0h-75v100h75z"/><glyph glyph-name="at" unicode="@" horiz-adv-x="800" d="M704 118l20-26C630 24 539-13 419-13 209-13 30 123 30 344c0 216 176 380 406 380 197 0 334-121 334-294 0-140-94-260-203-260-45 0-76 28-76 69 0 11 2 18 7 37-31-61-73-106-147-106-79 0-133 60-133 147 0 128 92 240 197 240 67 0 112-35 123-95l24 81h50l-57-190c-16-52-23-84-23-104 0-27 19-44 48-44 79 0 155 110 155 225 0 154-122 259-300 259-210 0-369-150-369-346C66 143 231 22 420 22c109 0 198 34 284 96zM513 426c0 58-35 96-87 96-76 0-149-100-149-204 0-69 34-113 88-113 94 0 148 144 148 221z"/><glyph glyph-name="A" unicode="A" horiz-adv-x="630" d="M354 714L638 0h-75l-86 224H151L64 0H-9l288 714h75zm102-435L316 650 172 279h284z"/><glyph glyph-name="B" unicode="B" horiz-adv-x="667" d="M72 712h305c117 0 223-51 223-178 0-78-56-142-123-157 79-15 151-64 151-173C628 66 518 0 387 0H72v712zm66-58V397h226c81 0 169 29 169 128 0 112-96 129-187 129H138zm0-312V58h213c99 0 209 18 209 145 0 122-116 139-213 139H138z"/><glyph glyph-name="C" unicode="C" horiz-adv-x="704" d="M671 273C656 97 536-16 365-16 168-16 39 130 39 355c0 200 116 374 332 374 137 0 275-86 291-231h-68c-22 106-109 172-225 172-158 0-263-126-263-315S209 42 367 42c143 0 222 98 237 231h67z"/><glyph glyph-name="D" unicode="D" horiz-adv-x="685" d="M71 712h258c222 0 318-142 318-343C647 170 559 0 335 0H71v712zm68-58V58h179c208 0 261 144 261 307 0 179-86 289-250 289H139z"/><glyph glyph-name="E" unicode="E" horiz-adv-x="593" d="M566 712v-58H140V397h399v-57H140V58h430V0H72v712h494z"/><glyph glyph-name="F" unicode="F" horiz-adv-x="537" d="M525 712v-58H138V398h344v-58H138V0H71v712h454z"/><glyph glyph-name="G" unicode="G" horiz-adv-x="741" d="M683 362V0h-45l-12 101-2 32C581 38 490-17 374-17 175-17 39 132 39 349c0 224 137 378 338 378 149 0 273-84 296-235h-65c-21 112-119 177-230 177-165 0-272-125-272-319 0-188 108-310 271-310 126 0 223 80 242 203 3 21 4 32 4 63H379v56h304z"/><glyph glyph-name="H" unicode="H" horiz-adv-x="704" d="M632 712V0h-67v344H139V0H71v712h68V402h426v310h67z"/><glyph glyph-name="I" unicode="I" horiz-adv-x="222" d="M145 712V0H77v712h68z"/><glyph glyph-name="J" unicode="J" horiz-adv-x="500" d="M430 712V193c0-130-60-209-201-209C80-16 24 63 24 202c0 9 0 14 1 28h65v-21c0-101 22-169 139-169s134 77 134 171v501h67z"/><glyph glyph-name="K" unicode="K" horiz-adv-x="648" d="M643 712L322 421 659 0h-87L274 375 138 251V0H71v712h67V329l415 383h90z"/><glyph glyph-name="L" unicode="L" horiz-adv-x="537" d="M541 58V0H73v712h68V58h400z"/><glyph glyph-name="M" unicode="M" horiz-adv-x="833" d="M763 712V0h-65v430c0 75 3 149 8 224-14-43-30-87-47-129L449 0h-61L175 519c-18 43-33 87-47 131 5-73 8-145 8-218V0H71v712h92l207-508c18-44 33-89 49-134 16 44 30 89 47 132l204 510h93z"/><glyph glyph-name="N" unicode="N" horiz-adv-x="704" d="M632 712V0h-75L226 478c-34 49-68 99-94 152 4-57 5-113 5-170V0H71v712h75l333-483c33-48 65-98 93-149-2 63-5 125-5 188v444h65z"/><glyph glyph-name="O" unicode="O" horiz-adv-x="741" d="M370 729c199 0 336-152 336-375 0-222-136-371-337-371C169-17 35 133 35 356c0 222 135 373 335 373zm-1-59c-159 0-266-126-266-312 0-191 106-316 267-316s268 125 268 313-108 315-269 315z"/><glyph glyph-name="P" unicode="P" horiz-adv-x="630" d="M75 712h305c133 0 224-67 224-200 0-139-91-208-226-208H143V0H75v712zm68-58V361h216c98 0 177 40 177 146 0 102-68 147-170 147H143z"/><glyph glyph-name="Q" unicode="Q" horiz-adv-x="741" d="M701-5l-34-43-112 85C512 3 440-18 371-18 171-18 35 132 35 352c0 222 136 374 335 374s335-151 335-371c0-114-38-216-105-283zM549 110c64 71 89 149 89 246 0 185-108 311-268 311-159 0-267-126-267-313-1-190 106-314 271-314 47 0 90 11 129 38l-94 71 35 43z"/><glyph glyph-name="R" unicode="R" horiz-adv-x="667" d="M72 712h322c126 0 222-56 222-192 0-93-52-155-139-176 90-16 119-66 125-161 2-31 2-151 34-183h-77c-20 25-18 121-21 158-9 134-59 160-189 160H140V0H72v712zm68-58V372h201c101 0 208 17 208 144 0 109-85 138-177 138H140z"/><glyph glyph-name="S" unicode="S" horiz-adv-x="630" d="M569 507h-66c-6 108-82 162-198 162-112 0-178-49-178-134 0-93 79-110 192-135 157-34 272-64 272-206C591 40 455-15 323-15 146-15 39 77 39 229v6h65c0-132 88-195 224-195 123 0 198 55 198 147 0 96-75 118-241 157-109 25-223 50-223 187 0 120 95 195 248 195 150 0 252-72 259-219z"/><glyph glyph-name="T" unicode="T" d="M562 712v-58H312V0h-68v654H-6v58h568z"/><glyph glyph-name="U" unicode="U" horiz-adv-x="685" d="M620 712V267c0-183-90-282-274-282C159-15 65 83 65 269v443h68V286c0-152 43-244 214-244 169 0 205 98 205 245v425h68z"/><glyph glyph-name="V" unicode="V" horiz-adv-x="593" d="M601 712L337 0h-79L-9 712h76l186-512c17-47 32-94 45-142 16 47 29 95 46 141l185 513h72z"/><glyph glyph-name="W" unicode="W" horiz-adv-x="907" d="M904 712L707 0h-73L489 501c-14 49-28 97-36 147-15-48-25-97-39-145L272 0h-74L1 712h71l133-494c13-49 23-98 33-147 9 50 22 99 36 147l141 494h77l144-501c12-41 28-98 34-140 11 46 20 93 32 139l134 502h68z"/><glyph glyph-name="X" unicode="X" horiz-adv-x="574" d="M569 712L326 366 583 0h-82L323 255c-36 52-20 33-38 61-12-12-30-44-41-60L64 0h-78l259 366L2 712h80l159-228c16-23 29-48 44-71 16 23 32 48 46 72l163 227h75z"/><glyph glyph-name="Y" unicode="Y" horiz-adv-x="611" d="M622 712L340 294V0h-67v294L-10 712h81l199-298c14-21 26-42 39-63 13 24 28 48 36 60l200 301h77z"/><glyph glyph-name="Z" unicode="Z" horiz-adv-x="574" d="M552 712v-59L82 58h480V0H5v61l470 593H38v58h514z"/><glyph glyph-name="bracketleft" unicode="[" horiz-adv-x="241" d="M238 722v-49H135v-807h103v-50H76v906h162z"/><glyph glyph-name="backslash" unicode="\" horiz-adv-x="333" d="M350-17h-53L-15 729h52z"/><glyph glyph-name="bracketright" unicode="]" horiz-adv-x="241" d="M165 722v-906H3v50h103v806H3v50h162z"/><glyph glyph-name="asciicircum" unicode="^" horiz-adv-x="600" d="M106 297l168 415h53l167-415h-57L299 649 164 297h-58z"/><glyph glyph-name="underscore" unicode="_" horiz-adv-x="500" d="M0-125v50h500v-50H0z"/><glyph glyph-name="grave" unicode="`" horiz-adv-x="185" d="M47 734l104-141h-50L-33 734h80z"/><glyph glyph-name="a" unicode="a" horiz-adv-x="519" d="M511 51V3c-17-6-32-8-50-8-61 0-67 47-67 94C352 22 287-14 200-14 95-14 32 40 32 130c0 94 64 146 191 159 81 8 125 10 150 27 13 9 18 23 18 49 0 85-52 111-134 111-87 0-132-38-140-121H57c5 110 80 173 207 173 116 0 189-51 189-148V100c0-31-1-52 34-52 8 0 13 0 24 3zM391 280c-20-22-71-27-140-36-65-9-153-24-153-108 0-60 46-98 118-98 94 0 175 60 175 158v84z"/><glyph glyph-name="b" unicode="b" horiz-adv-x="574" d="M122 712V417c31 73 100 113 183 113 140 0 230-106 230-272 0-168-90-273-233-273-87 0-154 39-184 115V0H61v712h61zm174-235c-108 0-176-85-176-220S189 36 297 36c106 0 174 87 174 221 0 135-68 220-175 220z"/><glyph glyph-name="c" unicode="c" horiz-adv-x="519" d="M491 184C474 67 398-15 274-15 130-15 36 90 36 252c0 168 95 277 240 277 119 0 197-66 211-177h-64c-16 81-67 125-146 125-108 0-176-86-176-220S167 37 271 37c86 0 144 54 157 147h63z"/><glyph glyph-name="d" unicode="d" horiz-adv-x="574" d="M512 712V0h-57v101C424 23 354-15 270-15 128-15 38 90 38 257c0 165 90 272 230 272 82 0 150-36 183-111v294h61zM275 477c-106 0-174-86-174-219 0-136 68-222 175-222 110 0 177 84 177 221 0 111-52 220-178 220z"/><glyph glyph-name="e" unicode="e" horiz-adv-x="519" d="M488 169C466 55 389-17 268-17 125-17 32 88 32 251s97 277 235 277c152 0 226-126 226-268v-18H96c0-108 50-208 174-208 82 0 137 46 157 135h61zm-58 124c-7 114-69 183-165 183-112 0-157-87-169-183h334z"/><glyph glyph-name="f" unicode="f" horiz-adv-x="259" d="M272 713v-53c-21 3-28 3-42 3-75 0-74-38-74-98v-51h103v-51H156V0H93v463H5v51h88v59c0 94 32 144 131 144 18 0 26-1 48-4z"/><glyph glyph-name="g" unicode="g" d="M496 514V28c0-157-83-230-230-230-125 0-202 56-209 155h63c10-71 60-106 149-106 127 0 168 69 168 186v86C403 45 343 6 259 6 123 6 36 106 36 261c0 161 91 267 228 267 81 0 141-40 175-111v97h57zm-229-40c-103 0-168-80-168-208 0-126 65-206 166-206 105 0 171 82 171 213 0 122-66 201-169 201z"/><glyph glyph-name="h" unicode="h" horiz-adv-x="537" d="M122 712c0-311 0-256-1-295 37 74 93 110 178 110 120 0 180-69 180-187V0h-63v332c0 88-41 142-132 142-117 0-162-92-162-203V0H60v712h62z"/><glyph glyph-name="i" unicode="i" horiz-adv-x="185" d="M124 715V612H61v103h63zm0-201V0H61v514h63z"/><glyph glyph-name="j" unicode="j" horiz-adv-x="185" d="M127 514V-34c0-98-8-163-124-163-11 0-17 1-31 3v52c11-1 16-1 24-1 46 0 69 3 69 103v554h62zm0 202V613H65v103h62z"/><glyph glyph-name="k" unicode="k" horiz-adv-x="500" d="M493 514L273 325 508 0h-79L224 282l-102-87V0H62v712h60V263l287 251h84z"/><glyph glyph-name="l" unicode="l" horiz-adv-x="185" d="M124 712V0H62v712h62z"/><glyph glyph-name="m" unicode="m" horiz-adv-x="833" d="M120 514v-90c41 65 90 104 171 104 75 0 128-37 147-100 33 62 91 100 171 100 86 0 165-47 165-161V0h-63v350c0 80-41 122-119 122-93 0-143-63-143-157V0h-62v345c0 78-30 127-113 127-105 0-150-80-150-180V0H61v514h59z"/><glyph glyph-name="n" unicode="n" horiz-adv-x="537" d="M119 514v-97c41 73 93 111 182 111 100 0 178-52 178-178V0h-63v330c0 106-53 143-131 143-94 0-162-62-162-195V0H60v514h59z"/><glyph glyph-name="o" unicode="o" d="M279 529c148 0 242-106 242-274 0-166-93-270-242-270C129-15 34 91 34 257c0 165 96 272 245 272zm-1-53c-109 0-180-86-180-219 0-135 69-220 182-220 109 0 178 85 178 219s-70 220-180 220z"/><glyph glyph-name="p" unicode="p" horiz-adv-x="574" d="M120 514v-99c37 76 98 114 184 114 140 0 232-109 232-274 0-163-92-271-230-271-83 0-147 37-182 111v-287H63v706h57zm176-37c-108 0-174-83-174-221 0-135 68-219 176-219 105 0 174 86 174 218 0 135-68 222-176 222z"/><glyph glyph-name="q" unicode="q" horiz-adv-x="574" d="M511 514v-705h-62c0 259 0 205 1 287-34-72-97-110-184-110C126-14 38 90 38 255c0 168 91 275 234 275 86 0 146-38 181-114v98h58zm-235-36c-107 0-175-86-175-223 0-133 67-217 174-217 108 0 176 85 176 221 0 135-66 219-175 219z"/><glyph glyph-name="r" unicode="r" horiz-adv-x="315" d="M323 522v-64c-7 0-13 1-17 1-77 0-144-48-164-122-8-31-12-61-12-127V0H68v514h59V391c43 94 92 129 196 131z"/><glyph glyph-name="s" unicode="s" horiz-adv-x="481" d="M429 364h-61c-6 78-56 112-139 112-74 0-120-33-120-85 0-64 50-75 147-97 84-19 191-45 191-152 0-94-82-158-204-158C111-16 35 50 32 168h61c0-86 57-132 152-132 84 0 140 40 140 100 0 72-87 88-141 101-84 20-198 33-198 146 0 90 72 145 189 145 113 0 194-54 194-164z"/><glyph glyph-name="t" unicode="t" horiz-adv-x="296" d="M265 514v-51H159V137c0-52-2-86 65-86 11 0 23 1 41 3V0c-23-3-33-4-55-4-45 0-95 9-107 59-5 21-6 36-6 113v295H6v51h91v157h62V514h106z"/><glyph glyph-name="u" unicode="u" horiz-adv-x="537" d="M475 514V0h-58v95C380 23 323-15 236-15 129-15 59 47 59 172v342h63V199c0-101 31-159 130-159 103 0 161 86 161 190v284h62z"/><glyph glyph-name="v" unicode="v" horiz-adv-x="463" d="M459 514L270 0h-68L4 514h67l120-313c17-46 32-93 47-139 15 48 30 96 47 144l111 308h63z"/><glyph glyph-name="w" unicode="w" horiz-adv-x="741" d="M733 514L566 0h-68L396 338c-8 28-14 50-26 101-13-54-19-76-26-101L244 0h-70L7 514h68l98-313c11-34 18-63 36-133 20 81 11 56 34 135l92 311h72l98-326c8-27 14-53 29-120 14 60 21 85 31 118l103 328h65z"/><glyph glyph-name="x" unicode="x" horiz-adv-x="481" d="M460 514L278 274 481 0h-80L264 188c-8 12-14 20-26 39-7-11-18-27-26-38L76 0H1l199 270L16 514h80l111-150c11-15 21-33 32-48 21 31 14 23 33 48l114 150h74z"/><glyph glyph-name="y" unicode="y" horiz-adv-x="463" d="M460 514L258-19c-45-120-69-176-152-176-19 0-37 2-55 5v55c24-6 31-7 45-7 61 0 78 61 110 146L-1 514h69l139-354c18-47 11-30 31-91 16 52 22 74 31 98l127 347h64z"/><glyph glyph-name="z" unicode="z" horiz-adv-x="463" d="M432 514v-44L92 53h354V0H16v51l334 410H38v53h394z"/><glyph glyph-name="braceleft" unicode="{" horiz-adv-x="333" d="M4 288c104 0 139 59 139 150v76c0 136 41 201 185 209v-35c-104-6-126-60-126-155v-65c0-96-14-180-129-197 120-21 129-98 129-198V18c0-105 19-158 126-164v-35c-154 10-185 79-185 222v63c0 105-34 139-139 149v35z"/><glyph glyph-name="bar" unicode="|" horiz-adv-x="222" d="M84-214V786h54V-214H84z"/><glyph glyph-name="braceright" unicode="}" horiz-adv-x="333" d="M328 253c-105-10-139-44-139-149V41c0-143-31-212-185-222v35c107 6 126 59 126 164v55c0 100 9 177 129 198-115 17-129 101-129 197v65c0 95-22 149-126 155v35c144-8 185-73 185-209v-76c0-91 35-150 139-150v-35z"/><glyph glyph-name="asciitilde" unicode="~" horiz-adv-x="600" d="M562 320c-6-66-42-129-118-129-42 0-95 19-136 33-43 14-105 41-147 41s-75-34-82-83H40c12 67 38 131 121 131 47 0 112-25 155-40 37-13 87-35 127-35 49 0 74 40 83 82h36z"/><glyph glyph-name="afii10017" unicode="А" horiz-adv-x="630" d="M354 714L638 0h-75l-86 224H151L64 0H-9l288 714h75zm102-435L316 650 172 279h284z"/><glyph glyph-name="afii10018" unicode="Б" horiz-adv-x="667" d="M621 206C621 80 540 0 409 0H72v712h493v-58H140V412h269c131 0 212-80 212-206zm-68 0c0 92-59 148-159 148H140V58h254c100 0 159 56 159 148z"/><glyph glyph-name="afii10019" unicode="В" horiz-adv-x="667" d="M72 712h305c117 0 223-51 223-178 0-78-56-142-123-157 79-15 151-64 151-173C628 66 518 0 387 0H72v712zm66-58V397h226c81 0 169 29 169 128 0 112-96 129-187 129H138zm0-312V58h213c99 0 209 18 209 145 0 122-116 139-213 139H138z"/><glyph glyph-name="afii10020" unicode="Г" horiz-adv-x="519" d="M138 0H71v712h441v-58H138V0z"/><glyph glyph-name="afii10021" unicode="Д" horiz-adv-x="704" d="M694-192h-68V0H74v-192H6V58h65c111 208 106 445 106 613v41h442V58h75v-250zM551 58v596H245v-13c0-159 1-389-102-583h408z"/><glyph glyph-name="afii10022" unicode="Е" horiz-adv-x="593" d="M566 712v-58H140V397h399v-57H140V58h430V0H72v712h494z"/><glyph glyph-name="afii10024" unicode="Ж" horiz-adv-x="990" d="M361 356L80 0H-8l321 406L17 712h92l352-374v374h68V338l352 374h92L677 406 998 0h-88L629 356 529 252V0h-68v252z"/><glyph glyph-name="afii10025" unicode="З" horiz-adv-x="630" d="M590 209c0-88-66-224-266-224C147-15 40 77 40 229v6h65c0-132 88-195 224-195 120 0 193 77 193 168 0 83-71 138-162 138H246v58h114c76 0 143 42 143 125 0 99-76 143-173 143-113 0-195-54-201-162H63c7 147 115 219 265 219 134 0 243-60 243-194 0-75-53-133-105-151v-3c75-20 124-78 124-172z"/><glyph glyph-name="afii10026" unicode="И" horiz-adv-x="704" d="M72 0v712h68V73l404 639h88V0h-68v639L160 0H72z"/><glyph glyph-name="afii10027" unicode="Й" horiz-adv-x="704" d="M209 886h39c6-51 44-82 103-82 57 0 96 30 106 82h39c-15-84-64-130-146-130-83 0-131 46-141 130zM72 0v712h68V73l404 639h88V0h-68v639L160 0H72z"/><glyph glyph-name="afii10028" unicode="К" horiz-adv-x="648" d="M643 712L322 421 659 0h-87L274 375 138 251V0H71v712h67V329l415 383h90z"/><glyph glyph-name="afii10029" unicode="Л" horiz-adv-x="667" d="M598 0h-68v654H243l-13-419C226 92 188-15 80-15 52-15 26-9 8-1v56c13-8 50-12 70-12 51 0 81 50 87 232l14 437h419V0z"/><glyph glyph-name="afii10030" unicode="М" horiz-adv-x="833" d="M763 712V0h-65v430c0 75 3 149 8 224-14-43-30-87-47-129L449 0h-61L175 519c-18 43-33 87-47 131 5-73 8-145 8-218V0H71v712h92l207-508c18-44 33-89 49-134 16 44 30 89 47 132l204 510h93z"/><glyph glyph-name="afii10031" unicode="Н" horiz-adv-x="704" d="M632 712V0h-68v344H139V0H71v712h68V402h425v310h68z"/><glyph glyph-name="afii10032" unicode="О" horiz-adv-x="741" d="M370 729c199 0 336-152 336-375 0-222-136-371-337-371C169-17 35 133 35 356c0 222 135 373 335 373zm-1-59c-159 0-266-126-266-312 0-191 106-316 267-316s268 125 268 313-108 315-269 315z"/><glyph glyph-name="afii10033" unicode="П" horiz-adv-x="704" d="M632 712V0h-68v654H139V0H71v712h561z"/><glyph glyph-name="afii10034" unicode="Р" horiz-adv-x="630" d="M75 712h305c133 0 224-67 224-200 0-139-91-208-226-208H143V0H75v712zm68-58V361h216c98 0 177 40 177 146 0 102-68 147-170 147H143z"/><glyph glyph-name="afii10035" unicode="С" horiz-adv-x="704" d="M671 273C656 97 536-16 365-16 168-16 39 130 39 355c0 200 116 374 332 374 137 0 275-86 291-231h-68c-22 106-109 172-225 172-158 0-263-126-263-315S209 42 367 42c143 0 222 98 237 231h67z"/><glyph glyph-name="afii10036" unicode="Т" d="M562 712v-58H312V0h-68v654H-6v58h568z"/><glyph glyph-name="afii10037" unicode="У" horiz-adv-x="593" d="M-7 712h73l233-475 231 475h72L318 124C259 2 210-15 140-15c-32 0-54 9-74 18v58c13-8 36-18 80-18 50 0 82 48 106 98l9 19z"/><glyph glyph-name="afii10038" unicode="Ф" horiz-adv-x="750" d="M720 362c0-186-149-276-311-276V0h-68v86C179 86 30 176 30 362c0 179 146 272 311 272v78h68v-78c165 0 311-93 311-272zm-67 0c0 148-105 207-244 214V143c136 10 244 72 244 219zM341 143v433c-139-7-244-66-244-214 0-147 108-209 244-219z"/><glyph glyph-name="afii10039" unicode="Х" horiz-adv-x="574" d="M569 712L326 366 583 0h-82L323 255c-36 52-20 33-38 61-12-12-30-44-41-60L64 0h-78l259 366L2 712h80l159-228c16-23 29-48 44-71 16 23 32 48 46 72l163 227h75z"/><glyph glyph-name="afii10040" unicode="Ц" horiz-adv-x="722" d="M707-192h-68V0H72v712h68V58h424v654h68V58h75v-250z"/><glyph glyph-name="afii10041" unicode="Ч" horiz-adv-x="640" d="M500 340c-39-10-155-30-219-30C77 310 51 420 51 515v197h68V519c0-58 12-150 155-150 86 0 190 20 226 29v314h68V0h-68v340z"/><glyph glyph-name="afii10042" unicode="Ш" horiz-adv-x="1044" d="M72 0v712h68V58h348v654h68V58h348v654h68V0H72z"/><glyph glyph-name="afii10043" unicode="Щ" horiz-adv-x="1062" d="M72 0v712h68V58h348v654h68V58h348v654h68V58h75v-250h-68V0H72z"/><glyph glyph-name="afii10044" unicode="Ъ" horiz-adv-x="785" d="M756 206C756 80 675 0 544 0H227v654H-5v58h300V412h249c131 0 212-80 212-206zm-68 0c0 92-59 148-159 148H295V58h234c100 0 159 56 159 148z"/><glyph glyph-name="afii10045" unicode="Ы" horiz-adv-x="841" d="M601 206C601 80 520 0 389 0H72v712h68V412h249c131 0 212-80 212-206zm-68 0c0 92-59 148-159 148H140V58h234c100 0 159 56 159 148zm168 506h68V0h-68v712z"/><glyph glyph-name="afii10046" unicode="Ь" horiz-adv-x="630" d="M601 206C601 80 520 0 389 0H72v712h68V412h249c131 0 212-80 212-206zm-68 0c0 92-59 148-159 148H140V58h234c100 0 159 56 159 148z"/><glyph glyph-name="afii10047" unicode="Э" horiz-adv-x="704" d="M665 355c0-225-129-371-326-371C176-16 59 86 36 248h67C125 128 203 42 337 42c154 0 255 117 261 298H220v57h376c-14 165-115 273-261 273-116 0-203-66-225-172H42c16 145 154 231 291 231 216 0 332-174 332-374z"/><glyph glyph-name="afii10048" unicode="Ю" horiz-adv-x="1000" d="M629 729c199 0 336-152 336-375 0-222-136-371-337-371-196 0-329 145-334 361H138V0H70v712h68V402h158c17 197 147 327 333 327zm-1-59c-159 0-266-126-266-312 0-191 106-316 267-316s268 125 268 313-108 315-269 315z"/><glyph glyph-name="afii10049" unicode="Я" horiz-adv-x="630" d="M337 316L92 0H4l245 316c-125 4-206 76-206 199 0 126 85 197 216 197h299V0h-68v316H337zm153 58v280H274c-100 0-163-47-163-139s63-141 163-141h216z"/><glyph glyph-name="dagger" unicode="†" d="M508 492v-54H306v-589h-59v589H48v54h199v220h59V492h202z"/><glyph glyph-name="degree" unicode="°" horiz-adv-x="400" d="M200 712c82 0 148-66 148-148s-66-148-148-148S52 482 52 564s66 148 148 148zm0-48c-55 0-100-45-100-100 0-56 45-100 100-100s100 44 100 100c0 55-45 100-100 100z"/><glyph glyph-name="afii10050" unicode="Ґ" horiz-adv-x="519" d="M512 654H140V0H72v712h372v163h68V654z"/><glyph glyph-name="sterling" unicode="£" d="M514 475h-62c-3 117-64 181-172 181-97 0-164-57-164-139 0-58 31-103 60-156h160v-33H194c16-35 22-60 22-92 0-80-52-139-109-188 38 18 66 31 110 31 27 0 51-4 84-15 30-10 59-23 91-23 41 0 83 19 118 52l32-47c-36-37-92-61-147-61-49 0-76 13-123 29-30 10-58 15-81 15-47 0-74-17-112-42L43 39c59 45 112 106 112 185 0 33-9 67-27 104H46v33h62c-29 52-55 96-55 158 0 114 93 192 228 192 152 0 233-88 233-236z"/><glyph glyph-name="section" unicode="§" d="M455 539h-61c-4 74-40 125-122 125-64 0-108-37-108-91 0-70 60-90 168-153 76-44 178-95 178-196 0-64-40-116-109-144 35-30 58-66 58-114 0-88-74-150-179-150C160-184 92-112 90 0h62c4-86 49-132 130-132 67 0 114 39 114 95 0 64-65 98-162 155-81 47-191 94-191 204 0 71 45 121 109 144-35 32-50 63-50 104 0 85 71 146 171 146 114 0 180-64 182-177zM188 435c-46-21-85-52-85-107 0-44 28-76 101-120 53-32 108-61 158-97 56 20 88 58 88 104 0 57-62 99-106 126-85 52-117 63-156 94z"/><glyph glyph-name="bullet" unicode="•" horiz-adv-x="500" d="M250 534c98 0 178-80 178-178s-80-178-178-178S72 258 72 356s80 178 178 178z"/><glyph glyph-name="paragraph" unicode="¶" horiz-adv-x="600" d="M543 668h-53v-841h-54v841H310v-841h-54v436c-129 6-207 88-207 219 0 156 110 230 256 230h238v-44z"/><glyph glyph-name="afii10055" unicode="І" horiz-adv-x="222" d="M145 712V0H77v712h68z"/><glyph glyph-name="registered" unicode="®" horiz-adv-x="400" d="M199 723c101 0 183-82 183-183 0-102-82-184-183-184-100 0-182 82-182 184 0 101 82 183 182 183zm0-27c-85 0-155-71-155-157 0-85 70-156 155-156 86 0 156 71 156 156 0 86-70 157-156 157zm-70-63h69c57 0 84-18 84-54 0-21-11-36-34-44 23-11 31-27 31-58 0-16 1-18 6-28h-33c-6 17-2 24-5 35-6 39-21 38-59 38h-28v-73h-31v184zm31-85h36c38 0 55 9 55 31 0 30-35 28-56 28h-35v-59z"/><glyph glyph-name="copyright" unicode="©" horiz-adv-x="800" d="M400 720c202 0 367-164 367-367 0-202-165-366-367-366C197-13 33 151 33 353c0 203 164 367 367 367zm0-35C217 685 68 537 68 354 68 170 217 22 400 22s332 149 332 331c0 183-149 332-332 332zm177-407c-11-79-80-136-166-136-114 0-199 92-199 214 0 123 81 214 191 214 92 0 164-61 171-144h-44c-12 63-59 103-124 103-83 0-141-70-141-170 0-103 61-176 147-176 61 0 107 37 121 95h44z"/><glyph glyph-name="trademark" unicode="™" horiz-adv-x="990" d="M244 356v319H119v37h291v-37H285V356h-41zm232 0v356h62l113-295 113 295h60V356h-37v315L667 356h-35L513 671V356h-37z"/><glyph glyph-name="afii10051" unicode="Ђ" horiz-adv-x="750" d="M705 171c0-165-96-295-262-295v59C589-55 636 43 636 172c0 119-60 205-167 205-114 0-177-74-177-210V0h-68v653H-5v59h566v-59H292V331h3c33 69 104 103 180 103 139 0 230-110 230-263z"/><glyph glyph-name="afii10099" unicode="ђ" horiz-adv-x="537" d="M478 93c0-150-100-278-260-284v59c125 7 197 109 197 234v75c0 105-42 156-129 156-97 0-164-72-164-177V0H59v461H7v53h52v198h63V514h233v-53H122V282h2c32 72 95 104 174 104 121 0 180-65 180-199V93z"/><glyph glyph-name="notequal" unicode="≠" horiz-adv-x="600" d="M233 185l71 135H51v48h280l77 145 42-22-66-123h164v-48H358l-72-135h262v-48H260L185-4l-42 23 64 118H51v48h182z"/><glyph glyph-name="afii10052" unicode="Ѓ" horiz-adv-x="519" d="M138 0H71v712h441v-59H138V0zm238 902L250 761h-50l99 141h77z"/><glyph glyph-name="afii10100" unicode="ѓ" horiz-adv-x="400" d="M396 461H122V0H59v514h337v-53zm-67 273L203 593h-51l100 141h77z"/><glyph glyph-name="infinity" unicode="∞" horiz-adv-x="722" d="M362 276c52 48 109 112 185 112 79 0 135-58 135-139 0-82-54-139-132-139-57 0-104 26-188 105-58-46-109-105-190-105-77 0-132 56-132 136 0 81 55 141 131 141 73 0 140-66 191-111zm33-30c41-38 97-88 157-88 49 0 82 36 82 88 0 57-33 94-85 94-56 0-115-59-154-94zm-67 0c-39 33-104 93-158 93-47 0-82-39-82-92 0-54 34-89 86-89s117 51 154 88z"/><glyph glyph-name="plusminus" unicode="±" horiz-adv-x="600" d="M273 86v178H51v48h222v177h53V312h222v-48H326V86h-53zM51-8v48h497V-8H51z"/><glyph glyph-name="lessequal" unicode="≤" horiz-adv-x="600" d="M52 260v54l497 193v-54L118 287l431-166V68zm0-237h497v-48H52v48z"/><glyph glyph-name="greaterequal" unicode="≥" horiz-adv-x="600" d="M548 260L51 68v53l430 166L51 453v54l497-193v-54zm0-237v-48H51v48h497z"/><glyph glyph-name="afii10103" unicode="і" horiz-adv-x="185" d="M124 715V612H61v103h63zm0-201V0H61v514h63z"/><glyph glyph-name="mu" unicode="µ" horiz-adv-x="537" d="M475 514V0h-58v95C377 21 323-15 236-15c-39 0-84 17-113 35v-227H59v721h63V209c0-93 15-169 130-169 126 0 161 106 161 210v264h62z"/><glyph glyph-name="afii10098" unicode="ґ" horiz-adv-x="400" d="M393 461H122V0H59v514h271v157h63V461z"/><glyph glyph-name="afii10057" unicode="Ј" horiz-adv-x="500" d="M430 712V193c0-130-60-209-201-209C80-16 24 63 24 202c0 9 0 14 1 28h65v-21c0-101 22-169 139-169s134 77 134 171v501h67z"/><glyph glyph-name="afii10053" unicode="Є" horiz-adv-x="704" d="M668 248C645 86 528-16 365-16 168-16 39 130 39 355c0 200 116 374 332 374 137 0 275-86 291-231h-68c-22 106-109 172-225 172-146 0-247-108-261-273h386v-57H106c6-181 107-298 261-298 134 0 212 86 234 206h67z"/><glyph glyph-name="afii10101" unicode="є" horiz-adv-x="519" d="M488 166C466 58 392-15 274-15 130-15 36 90 36 252c0 168 95 277 240 277 115 0 191-61 209-165h-65c-18 73-68 113-143 113-99 0-165-72-175-188h241v-53H102c6-122 71-199 169-199 80 0 136 47 154 129h63z"/><glyph glyph-name="afii10056" unicode="Ї" horiz-adv-x="222" d="M145 712V0H77v712h68zm89 170V780h-65v102h65zm-181 0V780h-65v102h65z"/><glyph glyph-name="afii10104" unicode="ї" horiz-adv-x="185" d="M124 514V0H61v514h63zm92 200V612h-65v102h65zm-181 0V612h-66v102h66z"/><glyph glyph-name="afii10058" unicode="Љ" horiz-adv-x="1000" d="M971 206C971 80 890 0 759 0H498v654H242l-13-419C225 92 187-15 79-15 51-15 28-9 10-1v56c13-8 47-12 67-12 51 0 81 50 87 232l14 437h388V412h193c131 0 212-80 212-206zm-68 0c0 92-59 148-159 148H566V58h178c100 0 159 56 159 148z"/><glyph glyph-name="afii10106" unicode="љ" horiz-adv-x="778" d="M748 156C748 59 685 0 585 0H383v461H207l-9-258C193 50 147-11 64-11 45-11 24-6 9 0v51c14-7 41-9 56-9 42 0 67 46 71 164l10 308h300V312h139c99 0 163-59 163-156zm-63 0c0 66-43 103-115 103H446V53h124c72 0 115 36 115 103z"/><glyph glyph-name="afii10059" unicode="Њ" horiz-adv-x="1000" d="M489 354H140V0H72v712h68V412h349v300h68V412h203c131 0 212-80 212-206S891 0 760 0H489v354zm415-148c0 92-59 148-159 148H557V58h188c100 0 159 56 159 148z"/><glyph glyph-name="afii10107" unicode="њ" horiz-adv-x="778" d="M746 156C746 59 683 0 583 0H375v259H122V0H59v514h63V312h253v202h63V312h145c99 0 163-59 163-156zm-63 0c0 66-43 103-115 103H438V53h130c72 0 115 36 115 103z"/><glyph glyph-name="afii10105" unicode="ј" horiz-adv-x="185" d="M127 514V-34c0-98-8-163-124-163-11 0-17 1-31 3v52c11-1 16-1 24-1 46 0 69 3 69 103v554h62zm0 202V613H65v103h62z"/><glyph glyph-name="afii10054" unicode="Ѕ" horiz-adv-x="630" d="M569 507h-66c-6 108-82 162-198 162-112 0-178-49-178-134 0-93 79-110 192-135 157-34 272-64 272-206C591 40 455-15 323-15 146-15 39 77 39 229v6h65c0-132 88-195 224-195 123 0 198 55 198 147 0 96-75 118-241 157-109 25-223 50-223 187 0 120 95 195 248 195 150 0 252-72 259-219z"/><glyph glyph-name="logicalnot" unicode="¬" horiz-adv-x="600" d="M51 320v48h497V137h-50v183H51z"/><glyph glyph-name="radical" unicode="√" horiz-adv-x="600" d="M508 786L298-214h-55L75 132l-45-22-19 40 88 44 166-347 194 939h49z"/><glyph glyph-name="florin" unicode="ƒ" d="M421 437l-9-49H299L230 21c-16-85-30-121-58-153-26-30-60-43-110-43-20 0-30 1-55 4l10 54c21-3 27-3 40-3 34 0 58 10 73 32 15 21 26 56 38 118l68 358H135l10 49h101l19 102c11 60 23 90 43 115 27 35 66 51 120 51 23 0 33 0 62-4l-11-53c-24 3-32 3-48 3-59 0-87-31-103-113l-20-101h113z"/><glyph glyph-name="approxequal" unicode="≈" horiz-adv-x="600" d="M557 400c-6-66-42-129-118-129-42 0-95 19-136 33-43 14-105 41-147 41s-75-34-82-83H35c12 67 38 131 121 131 47 0 112-25 155-40 37-13 87-35 127-35 49 0 74 40 83 82h36zm0-161c-6-66-42-129-118-129-42 0-95 19-136 33-43 14-105 41-147 41s-75-34-82-83H35c12 67 38 131 121 131 47 0 112-25 155-40 37-13 87-35 127-35 49 0 74 40 83 82h36z"/><glyph glyph-name="Delta" unicode="∆" horiz-adv-x="667" d="M364 712L652 0H16l285 712h63zM93 52h479L332 660z"/><glyph glyph-name="guillemotleft" unicode="«" horiz-adv-x="426" d="M354 423v-66l-94-91 94-90v-66L220 234v62zm-161-1v-65l-94-91 94-89v-67L59 235v62z"/><glyph glyph-name="guillemotright" unicode="»" horiz-adv-x="426" d="M233 423l134-127v-60L233 111v65l94 90-94 89v68zm-161-1l133-124v-61L72 111v65l94 91-94 90v65z"/><glyph glyph-name="ellipsis" unicode="…" horiz-adv-x="1000" d="M132 0v100h70V0h-70zm333 0v100h70V0h-70zm333 0v100h70V0h-70z"/><glyph glyph-name="nbspace" unicode="" horiz-adv-x="278"/><glyph glyph-name="afii10060" unicode="Ћ" horiz-adv-x="750" d="M450 434c204 0 230-110 230-205V0h-68v225c0 58-12 150-155 150-54 0-126-23-165-46V0h-68v654H-5v58h566v-58H292V391c38 20 116 43 158 43z"/><glyph glyph-name="afii10108" unicode="ћ" horiz-adv-x="537" d="M7 461v53h52v198h63V514h233v-53H122V282h2c32 72 95 104 174 104 121 0 180-65 180-199V0h-63v177c0 105-42 156-129 156-97 0-164-72-164-177V0H59v461H7z"/><glyph glyph-name="afii10061" unicode="Ќ" horiz-adv-x="648" d="M643 712L322 421 659 0h-87L274 375 138 251V0H71v712h67V329c27 26 36 35 47 45l368 338h90zM436 902L310 761h-50l99 141h77z"/><glyph glyph-name="afii10109" unicode="ќ" horiz-adv-x="500" d="M274 314L508 0h-79L228 271l-105-97V0H60v514h63V251l286 263h84zm105 420L253 593h-51l100 141h77z"/><glyph glyph-name="afii10102" unicode="ѕ" horiz-adv-x="481" d="M429 364h-61c-6 78-56 112-139 112-74 0-120-33-120-85 0-64 50-75 147-97 84-19 191-45 191-152 0-94-82-158-204-158C111-16 35 50 32 168h61c0-86 57-132 152-132 84 0 140 40 140 100 0 72-87 88-141 101-84 20-198 33-198 146 0 90 72 145 189 145 113 0 194-54 194-164z"/><glyph glyph-name="endash" unicode="–" horiz-adv-x="500" d="M500 305v-61H0v61h500z"/><glyph glyph-name="emdash" unicode="—" horiz-adv-x="1000" d="M1000 305v-61H0v61h1000z"/><glyph glyph-name="quotedblleft" unicode="“" horiz-adv-x="370" d="M222 487v86c0 80 27 129 84 153v-42c-32-19-44-46-44-96h38V487h-78zm-153 0v86c0 80 27 129 84 153v-42c-32-19-44-46-44-96h38V487H69z"/><glyph glyph-name="quotedblright" unicode="”" horiz-adv-x="370" d="M146 712v-86c0-80-27-129-84-153v42c32 19 44 46 44 96H68v101h78zm153 0v-86c0-80-27-129-84-153v42c32 19 44 46 44 96h-38v101h78z"/><glyph glyph-name="quoteleft" unicode="‘" horiz-adv-x="278" d="M96 485v110c0 56 33 115 88 132v-43c-36-21-45-55-45-95h39V485H96z"/><glyph glyph-name="quoteright" unicode="’" horiz-adv-x="278" d="M181 712V602c0-56-33-115-88-132v43c36 21 45 55 45 95H99v104h82z"/><glyph glyph-name="divide" unicode="÷" horiz-adv-x="600" d="M51 216v49h497v-49H51zM264 13v100h70V13h-70zm0 355v100h70V368h-70z"/><glyph glyph-name="quotedblbase" unicode="„" horiz-adv-x="370" d="M146 101V15c0-80-27-129-84-153v42c32 19 44 46 44 96H68v101h78zm153 0V15c0-80-27-129-84-153v42c32 19 44 46 44 96h-38v101h78z"/><glyph glyph-name="afii10062" unicode="Ў" horiz-adv-x="593" d="M-7 712h73l233-475 231 475h72L318 124C259 2 210-15 140-15c-32 0-54 9-74 18v58c13-8 36-18 80-18 50 0 82 48 106 98l9 19zm169 174h39c6-51 44-82 103-82 57 0 96 30 106 82h39c-15-84-64-130-146-130-83 0-131 46-141 130z"/><glyph glyph-name="afii10110" unicode="ў" horiz-adv-x="463" d="M460 514L258-19c-45-120-69-176-152-176-19 0-37 2-55 5v55c24-6 31-7 45-7 61 0 78 61 110 146L-1 514h69l139-354c18-47 11-30 31-91 16 52 22 74 31 98l127 347h64zM96 714h39c6-51 44-82 103-82 57 0 96 30 106 82h39c-15-84-64-130-146-130-83 0-131 46-141 130z"/><glyph glyph-name="afii10145" unicode="Џ" horiz-adv-x="704" d="M386 0v-192h-68V0H72v712h68V58h424v654h68V0H386z"/><glyph glyph-name="afii10193" unicode="џ" horiz-adv-x="537" d="M300 0v-164h-63V0H59v514h63V53h293v461h63V0H300z"/><glyph glyph-name="afii61352" unicode="№" horiz-adv-x="968" d="M933 277c0-89-56-145-141-145-86 0-139 53-139 145 0 91 53 145 137 145 88 0 143-55 143-145zm1-277H654v53h280V0zM593 0h-76L141 581h-2V0H71v691h76l376-581h2v581h68V0zm288 277c0 62-39 101-88 101s-88-39-88-101c0-61 39-101 86-101 52 0 90 39 90 101z"/><glyph glyph-name="afii10023" unicode="Ё" horiz-adv-x="593" d="M453 882V780h-65v102h65zm-181 0V780h-66v102h66zm294-170v-58H140V397h399v-57H140V58h430V0H72v712h494z"/><glyph glyph-name="afii10071" unicode="ё" horiz-adv-x="519" d="M383 712V612h-65v100h65zm-181 0V612h-66v100h66zm286-543C466 55 389-17 268-17 125-17 32 88 32 251s97 277 235 277c152 0 226-126 226-268v-18H96c0-108 50-208 174-208 82 0 137 46 157 135h61zm-58 124c-7 114-69 183-165 183-112 0-157-87-169-183h334z"/><glyph glyph-name="afii10097" unicode="я" horiz-adv-x="519" d="M457 0h-63v216H266L85 0H3l191 218c-91 6-153 59-153 148 0 90 61 148 156 148h260V0zm-63 461H212c-69 0-108-37-108-96 0-60 39-96 108-96h182v192z"/><glyph glyph-name="afii10065" unicode="а" horiz-adv-x="519" d="M511 51V3c-17-6-32-8-50-8-61 0-67 47-67 94C352 22 287-14 200-14 95-14 32 40 32 130c0 94 64 146 191 159 81 8 125 10 150 27 13 9 18 23 18 49 0 85-52 111-134 111-87 0-132-38-140-121H57c5 110 80 173 207 173 116 0 189-51 189-148V100c0-31-1-52 34-52 8 0 13 0 24 3zM391 280c-20-22-71-27-140-36-65-9-153-24-153-108 0-60 46-98 118-98 94 0 175 60 175 158v84z"/><glyph glyph-name="afii10066" unicode="б" d="M521 253c0-161-96-268-239-268C93-15 43 137 43 296c0 99 14 221 64 298 46 71 109 99 207 105l48 3c53 3 66 10 74 27h70c-11-61-50-77-139-83l-76-5c-116-8-175-82-197-240h3c34 69 107 116 191 116 138 0 233-101 233-264zm-63 0c0 125-74 211-173 211-106 0-179-82-179-211 0-127 74-215 176-215s176 88 176 215z"/><glyph glyph-name="afii10067" unicode="в" horiz-adv-x="519" d="M485 144C485 51 419 0 300 0H59v514h241c105 0 165-43 165-122 0-61-33-102-89-118v-2c68-12 109-54 109-128zm-83 232c0 56-36 85-109 85H122V293h171c71 0 109 31 109 83zm20-225c0 59-43 93-129 93H122V53h171c88 0 129 33 129 98z"/><glyph glyph-name="afii10068" unicode="г" horiz-adv-x="400" d="M406 461H128V0H65v514h341v-53z"/><glyph glyph-name="afii10069" unicode="д" d="M546-164h-63V0H69v-164H6V53h61c50 92 71 214 71 395v66h336V53h72v-217zM411 53v408H199v-34c0-171-29-299-67-374h279z"/><glyph glyph-name="afii10070" unicode="е" horiz-adv-x="519" d="M488 169C466 55 389-17 268-17 125-17 32 88 32 251s97 277 235 277c152 0 226-126 226-268v-18H96c0-108 50-208 174-208 82 0 137 46 157 135h61zm-58 124c-7 114-69 183-165 183-112 0-157-87-169-183h334z"/><glyph glyph-name="afii10072" unicode="ж" horiz-adv-x="741" d="M262 258L72 0H-5l223 300L17 514h85l237-262v262h63V253l237 261h85L523 300 746 0h-77L479 258l-77-80V0h-63v178z"/><glyph glyph-name="afii10073" unicode="з" horiz-adv-x="485" d="M38 365c10 126 100 164 202 164 106 0 191-38 191-139 0-59-41-105-83-114v-2c48-9 100-41 100-121 0-112-98-168-207-168C106-15 35 54 28 161h63c10-74 50-123 151-123 114 0 140 60 140 113 0 52-31 93-110 93h-86v48h71c60 0 109 33 109 94 0 38-19 90-127 90-94 0-133-47-139-111H38z"/><glyph glyph-name="afii10074" unicode="и" horiz-adv-x="537" d="M478 0h-63v440L137 0H59v514h63V74l278 440h78V0z"/><glyph glyph-name="afii10075" unicode="й" horiz-adv-x="537" d="M126 714h39c6-51 44-82 103-82 57 0 96 30 106 82h39c-15-84-64-130-146-130-83 0-131 46-141 130zM478 0h-63v440L137 0H59v514h63V74l278 440h78V0z"/><glyph glyph-name="afii10076" unicode="к" horiz-adv-x="500" d="M274 314L506 0h-79L228 271l-105-97V0H60v514h63V251l286 263h84z"/><glyph glyph-name="afii10077" unicode="л" horiz-adv-x="537" d="M480 0h-63v461H207l-9-258C193 50 147-11 64-11 45-11 24-6 9 0v51c14-7 41-9 56-9 42 0 67 46 71 164l10 308h334V0z"/><glyph glyph-name="afii10078" unicode="м" horiz-adv-x="667" d="M609 0h-63v423h-3L362 0h-56L125 423h-3V0H59v514h84L335 71l190 443h84V0z"/><glyph glyph-name="afii10079" unicode="н" horiz-adv-x="537" d="M478 0h-63v242H122V0H59v514h63V295h293v219h63V0z"/><glyph glyph-name="afii10080" unicode="о" d="M279 529c148 0 242-106 242-274 0-166-93-270-242-270C129-15 34 91 34 257c0 165 96 272 245 272zm-1-53c-109 0-180-86-180-219 0-135 69-220 182-220 109 0 178 85 178 219s-70 220-180 220z"/><glyph glyph-name="afii10081" unicode="п" horiz-adv-x="537" d="M478 0h-63v461H122V0H59v514h419V0z"/><glyph glyph-name="afii10082" unicode="р" horiz-adv-x="574" d="M120 514v-99c37 76 98 114 184 114 140 0 232-109 232-274 0-163-92-271-230-271-83 0-147 37-182 111v-287H63v706h57zm176-37c-108 0-174-83-174-221 0-135 68-219 176-219 105 0 174 86 174 218 0 135-68 222-176 222z"/><glyph glyph-name="afii10083" unicode="с" horiz-adv-x="519" d="M491 184C474 67 398-15 274-15 130-15 36 90 36 252c0 168 95 277 240 277 119 0 197-66 211-177h-64c-16 81-67 125-146 125-108 0-176-86-176-220S167 37 271 37c86 0 144 54 157 147h63z"/><glyph glyph-name="afii10084" unicode="т" horiz-adv-x="444" d="M445 461H254V0h-63v461H0v53h445v-53z"/><glyph glyph-name="afii10085" unicode="у" horiz-adv-x="463" d="M460 514L258-19c-45-120-69-176-152-176-19 0-37 2-55 5v55c24-6 31-7 45-7 61 0 78 61 110 146L-1 514h69l139-354c18-47 11-30 31-91 16 52 22 74 31 98l127 347h64z"/><glyph glyph-name="afii10086" unicode="ф" horiz-adv-x="800" d="M763 256c0-173-92-271-200-271-56 0-106 29-129 69-2-1-2 0-2 0v-246l-63 1V54s0-1-2 0c-23-40-73-69-129-69C130-15 38 83 38 256c0 180 76 275 201 275 56 0 102-26 128-70h2v251h63V461h2c26 44 72 70 128 70 125 0 201-95 201-275zm-63 0c0 157-69 222-154 222-64 0-114-46-114-110V150c0-67 50-112 115-112 90 0 153 65 153 218zM369 150v218c0 64-50 110-114 110-85 0-154-65-154-222 0-153 63-218 153-218 65 0 115 45 115 112z"/><glyph glyph-name="afii10087" unicode="х" horiz-adv-x="481" d="M460 514L278 274 481 0h-80L264 188c-8 12-14 20-26 39-7-11-18-27-26-38L76 0H1l199 270L16 514h80l111-150c11-15 21-33 32-48 21 31 14 23 33 48l114 150h74z"/><glyph glyph-name="afii10088" unicode="ц" d="M546-164h-63V0H56v514h63V53h293v461h63V53h71v-217z"/><glyph glyph-name="afii10089" unicode="ч" horiz-adv-x="500" d="M381 245c-38-14-113-31-176-31-104 0-163 46-163 166v134h63V373c0-100 63-102 113-102 54 0 126 16 163 31v212h63V0h-63v245z"/><glyph glyph-name="afii10090" unicode="ш" horiz-adv-x="789" d="M59 0v514h63V53h241v461h63V53h241v461h63V0H59z"/><glyph glyph-name="afii10091" unicode="щ" horiz-adv-x="808" d="M56 0v514h63V53h241v461h63V53h241v461h63V53h71v-217h-63V0H56z"/><glyph glyph-name="afii10092" unicode="ъ" horiz-adv-x="611" d="M169 461H0v53h232V312h195c99 0 163-59 163-156S527 0 427 0H169v461zm358-305c0 66-43 103-115 103H232V53h180c72 0 115 36 115 103z"/><glyph glyph-name="afii10093" unicode="ы" horiz-adv-x="667" d="M57 514h63V312h167c99 0 163-59 163-156S387 0 287 0H57v514zm330-358c0 66-43 103-115 103H120V53h152c72 0 115 36 115 103zm160 358h63V0h-63v514z"/><glyph glyph-name="afii10094" unicode="ь" horiz-adv-x="500" d="M59 514h63V312h195c99 0 163-59 163-156S417 0 317 0H59v514zm358-358c0 66-43 103-115 103H122V53h180c72 0 115 36 115 103z"/><glyph glyph-name="afii10095" unicode="э" horiz-adv-x="519" d="M483 252c0-162-94-267-238-267C127-15 53 58 31 166h63c18-82 74-129 154-129 98 0 163 77 169 199H181v53h236c-10 116-76 188-175 188-75 0-125-40-143-113H34c18 104 94 165 209 165 145 0 240-109 240-277z"/><glyph glyph-name="afii10096" unicode="ю" horiz-adv-x="760" d="M483 529c148 0 242-106 242-274 0-166-93-270-242-270-145 0-239 100-245 257H122V0H59v514h63V295h118c14 143 106 234 243 234zm-1-53c-109 0-180-86-180-219 0-135 69-220 182-220 109 0 178 85 178 219s-70 220-180 220z"/><glyph glyph-name="currency" unicode="¤" d="M51 162l63 63c-30 40-46 80-46 131 0 48 16 92 45 130l-63 64 34 34 63-64c38 30 83 45 131 45 49 0 88-13 131-44l63 62 34-34-63-63c28-40 45-81 45-131 0-49-16-90-46-129l64-65-34-34-64 65c-36-30-83-47-130-47-46 0-92 17-130 46l-63-63zm227 351c-87 0-158-70-158-158 0-87 71-158 158-158s158 71 158 158c0 88-71 158-158 158z"/><glyph glyph-name="hyphenminus" unicode="" horiz-adv-x="370" d="M311 305v-61H60v61h251z"/><glyph glyph-name="quotesinglbase" unicode="‚" horiz-adv-x="278" d="M181 104V-6c0-56-32-115-88-132v42c36 23 45 55 45 96H99v104h82z"/><glyph glyph-name="daggerdbl" unicode="‡" d="M508 514v-54H306V101h202V47H306v-196h-59V47H48v54h199v359H48v54h199v198h59V514h202z"/><glyph glyph-name="perthousand" unicode="‰" horiz-adv-x="1111" d="M634 728L163-33h-49l473 761h47zm-86-401c95 0 149-60 149-164 0-112-53-174-147-174-99 0-151 58-151 168 0 109 53 170 149 170zm354 1c101 0 149-69 149-166 0-109-55-173-149-173-97 0-150 59-150 167 0 110 54 172 150 172zM212 708c95 0 149-61 149-168s-56-171-151-171c-94 0-148 61-148 169s55 170 150 170zm336-422c-63 0-95-45-95-132 0-81 33-123 96-123 61 0 94 45 94 129 0 81-34 126-95 126zm354 0c-62 0-97-46-97-129 0-81 35-126 97-126 61 0 94 45 94 129 0 82-33 126-94 126zM212 666c-61 0-96-47-96-131 0-81 33-124 95-124s96 45 96 127-34 128-95 128z"/><glyph glyph-name="guilsinglleft" unicode="‹" horiz-adv-x="259" d="M186 422v-67l-93-89 93-89v-67L53 235v62z"/><glyph glyph-name="guilsinglright" unicode="›" horiz-adv-x="259" d="M74 423l132-125v-63L74 111v67l93 89-93 89v67z"/><glyph glyph-name="brokenbar" unicode="¦" horiz-adv-x="222" d="M84-89v250h54V-89H84zm0 500v250h54V411H84z"/><glyph glyph-name="periodcentered" unicode="·" horiz-adv-x="278" d="M181 347V244H99v103h82z"/><glyph glyph-name="space" horiz-adv-x="278"/></font>
</defs>
</svg>
